<?xml version="1.0" standalone="no"?>
<!DOCTYPE svg PUBLIC "-//W3C//DTD SVG 20010904//EN"
 "http://www.w3.org/TR/2001/REC-SVG-20010904/DTD/svg10.dtd">
<svg version="1.0" xmlns="http://www.w3.org/2000/svg"
 width="444.000000pt" height="203.000000pt" viewBox="0 0 444.000000 203.000000"
 preserveAspectRatio="xMidYMid meet">

<g transform="translate(0.000000,203.000000) scale(0.100000,-0.100000)"
fill="#000000" stroke="none">
<path d="M646 1574 c-20 -20 -20 -48 -1 -68 8 -8 15 -20 15 -27 0 -6 12 -37
26 -69 l26 -58 -58 -55 c-51 -50 -59 -55 -78 -44 -11 6 -25 10 -30 9 -12 -4
-93 35 -101 48 -12 19 -54 11 -70 -14 -31 -46 14 -86 60 -53 23 18 82 7 122
-21 28 -20 30 -25 25 -70 -4 -50 25 -142 46 -142 5 0 12 21 16 48 3 26 19 70
36 98 42 75 98 118 188 146 l76 25 -26 17 c-17 11 -53 19 -100 21 l-73 4 -22
42 c-24 44 -30 89 -13 89 5 0 12 11 16 25 12 49 -45 84 -80 49z"/>
<path d="M796 1152 l-159 -160 7 -46 c4 -25 10 -46 13 -46 27 0 140 91 238
192 111 114 167 189 152 204 -3 4 -25 8 -49 11 l-43 4 -159 -159z"/>
<path d="M1037 922 c-108 -108 -197 -200 -197 -203 0 -8 43 -25 84 -34 28 -6
40 4 188 152 171 170 174 176 144 248 -8 19 -16 35 -18 35 -2 0 -92 -89 -201
-198z"/>
<path d="M1075 1068 c-68 -43 -115 -55 -131 -34 -10 14 -13 14 -23 2 -8 -10
-9 -16 -1 -21 20 -12 9 -51 -35 -129 -25 -44 -45 -80 -45 -82 0 -3 250 247
274 274 25 29 20 28 -39 -10z"/>
</g>
</svg>
